<svg width="50" height="54" viewBox="0 0 50 54" fill="none" xmlns="http://www.w3.org/2000/svg">
<path d="M2.5 22.4593L4.3675 22.2993C4.32446 21.8191 4.09809 21.3739 3.7354 21.0562C3.37272 20.7386 2.9016 20.5728 2.4199 20.5934C1.9382 20.614 1.48294 20.8193 1.1487 21.1668C0.814447 21.5143 0.626897 21.9772 0.625 22.4593H2.5ZM45.59 27.0168L43.825 37.2168L47.5225 37.8568L49.285 27.6568L45.59 27.0168ZM28.1125 49.9993H16.49V53.7493H28.1125V49.9993ZM14.2125 47.9068L12.1825 24.4243L8.445 24.7468L10.4775 48.2293L14.2125 47.9068ZM43.825 37.2168C42.5575 44.5418 35.9525 49.9993 28.1125 49.9993V53.7493C37.6775 53.7493 45.9275 47.0768 47.5225 37.8568L43.825 37.2168ZM28.1375 9.6243L26.48 19.7368L30.18 20.3418L31.8375 10.2318L28.1375 9.6243ZM12.97 22.4893L16.5675 19.3893L14.1175 16.5493L10.525 19.6493L12.97 22.4893ZM23.11 9.3043L24.3 4.7193L20.67 3.7793L19.48 8.3618L23.11 9.3043ZM26.095 3.8193L26.4575 3.9368L27.605 0.366802L27.2425 0.249303L26.095 3.8193ZM21.3075 13.9143C22.088 12.4541 22.693 10.9067 23.11 9.3043L19.48 8.3618C19.1355 9.67752 18.6388 10.9486 18 12.1493L21.3075 13.9143ZM26.4575 3.9368C26.8137 4.04595 27.1367 4.24277 27.3971 4.50921C27.6574 4.77566 27.8467 5.1032 27.9475 5.4618L31.5775 4.5218C31.3202 3.55005 30.821 2.65932 30.1263 1.93274C29.4316 1.20616 28.5642 0.667417 27.605 0.366802L26.4575 3.9368ZM24.3 4.7193C24.3506 4.53959 24.4393 4.37288 24.5601 4.23052C24.6809 4.08816 24.8309 3.97349 25 3.8943L23.3725 0.516803C22.0425 1.1568 21.0425 2.3418 20.67 3.7793L24.3 4.7193ZM25 3.8943C25.3424 3.73187 25.7336 3.70507 26.095 3.8193L27.2425 0.249303C25.9657 -0.15887 24.581 -0.0631634 23.3725 0.516803L25 3.8943ZM30.385 24.3343H43.335V20.5843H30.385V24.3343ZM6.7975 50.3893L4.3675 22.2993L0.6325 22.6218L3.0575 50.7118L6.7975 50.3893ZM4.375 50.6568V22.4593H0.625V50.6568H4.375ZM3.0575 50.7118C3.04987 50.6209 3.06372 50.5295 3.09333 50.4433C3.12294 50.357 3.17016 50.2779 3.232 50.2109C3.29383 50.1439 3.36892 50.0905 3.4525 50.0541C3.53608 50.0176 3.62633 49.999 3.7175 49.9993V53.7493C5.5325 53.7493 6.9525 52.1943 6.7975 50.3893L3.0575 50.7118ZM31.8375 10.2318C32.1518 8.33127 32.0632 6.38591 31.5775 4.5218L27.9475 5.4643C28.3021 6.82227 28.3668 8.23967 28.1375 9.6243L31.8375 10.2318ZM16.49 49.9993C15.9175 49.9983 15.3662 49.7829 14.9446 49.3956C14.5231 49.0083 14.2619 48.4771 14.2125 47.9068L10.4775 48.2293C10.6076 49.7347 11.2972 51.1367 12.4103 52.1586C13.5233 53.1805 14.979 53.748 16.49 53.7493V49.9993ZM16.5675 19.3893C18.2675 17.9243 20.0975 16.1818 21.31 13.9143L18 12.1493C17.135 13.7718 15.7575 15.1393 14.1175 16.5493L16.5675 19.3893ZM49.285 27.6568C49.4355 26.7893 49.3945 25.8993 49.1649 25.0493C48.9353 24.1993 48.5227 23.4097 47.9558 22.7359C47.389 22.0622 46.6817 21.5205 45.8835 21.1488C45.0853 20.7771 44.2155 20.5845 43.335 20.5843V24.3343C44.7525 24.3343 45.835 25.6143 45.59 27.0168L49.285 27.6568ZM3.7175 49.9993C4.0825 49.9993 4.375 50.2943 4.375 50.6568H0.625C0.625 52.3618 2.0075 53.7493 3.7175 53.7493V49.9993ZM26.48 19.7368C26.3868 20.3033 26.418 20.8832 26.5713 21.4364C26.7246 21.9896 26.9965 22.5028 27.368 22.9405C27.7395 23.3781 28.2018 23.7297 28.7228 23.9708C29.2437 24.2119 29.8109 24.3343 30.385 24.3343V20.5843C30.3545 20.5844 30.3243 20.5803 30.2967 20.5675C30.269 20.5546 30.2445 20.5359 30.2249 20.5125C30.2054 20.4891 30.1912 20.4616 30.1834 20.4321C30.1757 20.4027 30.1745 20.3718 30.18 20.3418L26.48 19.7368ZM12.1825 24.4243C12.152 24.0623 12.2052 23.6982 12.3425 23.3619C12.4798 23.0255 12.6949 22.7265 12.97 22.4893L10.52 19.6468C9.79536 20.2721 9.22943 21.0605 8.86871 21.9471C8.50799 22.8337 8.36278 23.7932 8.445 24.7468L12.1825 24.4243Z" fill="#CBAA5C"/>
</svg>
