<svg width="50" height="60" viewBox="0 0 50 60" fill="none" xmlns="http://www.w3.org/2000/svg">
<path d="M36.3525 29.625L30.15 13.975L24.92 23.125L19.69 13.975L13.4875 29.63H11.695V31.9825H21.035V29.63H19.6525L20.9975 25.7425L24.92 32.1675L28.8425 25.7425L30.1875 29.63H28.805V31.9825H38.1825V29.63L36.3525 29.625ZM49.69 24.845C49.6916 21.5818 49.0501 18.3504 47.8021 15.3353C46.5541 12.3202 44.7241 9.58067 42.4167 7.27327C40.1093 4.96587 37.3698 3.13587 34.3547 1.88787C31.3396 0.639874 28.1082 -0.00163985 24.845 3.14795e-06C11.135 3.14795e-06 0 11.1325 0 24.845C0 31.72 2.8025 37.92 7.285 42.4025C7.56569 42.6857 7.92426 42.879 8.31511 42.9578C8.70595 43.0366 9.11141 42.9974 9.47992 42.8452C9.84843 42.693 10.1633 42.4346 10.3846 42.1029C10.6059 41.7712 10.7235 41.3812 10.7225 40.9825C10.722 40.4379 10.5074 39.9153 10.125 39.5275C6.24126 35.6292 4.06503 30.3478 4.075 24.845C4.075 13.375 13.375 4.035 24.845 4.035C36.315 4.035 45.655 13.375 45.655 24.845C45.6596 27.5788 45.124 30.2866 44.0789 32.8127C43.0337 35.3388 41.4997 37.6336 39.565 39.565L22.005 57.1225L24.845 60L42.4425 42.4025C44.7472 40.0974 46.5739 37.3597 47.8176 34.3467C49.0613 31.3337 49.6977 28.1046 49.69 24.845Z" fill="#CBAA5C"/>
</svg>
