<svg xmlns="http://www.w3.org/2000/svg" >
<!-- Иконки на стартовой  -->

  <symbol id="smile">
    <path
      d="M28 53C41.8071 53 53 41.8071 53 28C53 14.1929 41.8071 3 28 3C14.1929 3 3 14.1929 3 28C3 41.8071 14.1929 53 28 53Z"
      stroke-linecap="round"
      stroke-linejoin="round"
    />
    <path
      d="M18 33C18 33 21.75 38 28 38C34.25 38 38 33 38 33M20.5 20.5H20.525M35.5 20.5H35.525"
      stroke-linecap="round"
      stroke-linejoin="round"
    />
  </symbol>

  <symbol id="like">
    <path
      d="M2.5 22.4593L4.3675 22.2993C4.32446 21.8191 4.09809 21.3739 3.7354 21.0562C3.37272 20.7386 2.9016 20.5728 2.4199 20.5934C1.9382 20.614 1.48294 20.8193 1.1487 21.1668C0.814447 21.5143 0.626897 21.9772 0.625 22.4593H2.5ZM45.59 27.0168L43.825 37.2168L47.5225 37.8568L49.285 27.6568L45.59 27.0168ZM28.1125 49.9993H16.49V53.7493H28.1125V49.9993ZM14.2125 47.9068L12.1825 24.4243L8.445 24.7468L10.4775 48.2293L14.2125 47.9068ZM43.825 37.2168C42.5575 44.5418 35.9525 49.9993 28.1125 49.9993V53.7493C37.6775 53.7493 45.9275 47.0768 47.5225 37.8568L43.825 37.2168ZM28.1375 9.6243L26.48 19.7368L30.18 20.3418L31.8375 10.2318L28.1375 9.6243ZM12.97 22.4893L16.5675 19.3893L14.1175 16.5493L10.525 19.6493L12.97 22.4893ZM23.11 9.3043L24.3 4.7193L20.67 3.7793L19.48 8.3618L23.11 9.3043ZM26.095 3.8193L26.4575 3.9368L27.605 0.366802L27.2425 0.249303L26.095 3.8193ZM21.3075 13.9143C22.088 12.4541 22.693 10.9067 23.11 9.3043L19.48 8.3618C19.1355 9.67752 18.6388 10.9486 18 12.1493L21.3075 13.9143ZM26.4575 3.9368C26.8137 4.04595 27.1367 4.24277 27.3971 4.50921C27.6574 4.77566 27.8467 5.1032 27.9475 5.4618L31.5775 4.5218C31.3202 3.55005 30.821 2.65932 30.1263 1.93274C29.4317 1.20616 28.5642 0.667417 27.605 0.366802L26.4575 3.9368ZM24.3 4.7193C24.3506 4.53959 24.4393 4.37288 24.5601 4.23052C24.6809 4.08816 24.8309 3.97349 25 3.8943L23.3725 0.516803C22.0425 1.1568 21.0425 2.3418 20.67 3.7793L24.3 4.7193ZM25 3.8943C25.3424 3.73187 25.7336 3.70507 26.095 3.8193L27.2425 0.249303C25.9657 -0.15887 24.581 -0.0631634 23.3725 0.516803L25 3.8943ZM30.385 24.3343H43.335V20.5843H30.385V24.3343ZM6.7975 50.3893L4.3675 22.2993L0.6325 22.6218L3.0575 50.7118L6.7975 50.3893ZM4.375 50.6568V22.4593H0.625V50.6568H4.375ZM3.0575 50.7118C3.04987 50.6209 3.06372 50.5295 3.09333 50.4433C3.12294 50.357 3.17017 50.2779 3.232 50.2109C3.29383 50.1439 3.36892 50.0905 3.4525 50.0541C3.53608 50.0176 3.62633 49.999 3.7175 49.9993V53.7493C5.5325 53.7493 6.9525 52.1943 6.7975 50.3893L3.0575 50.7118ZM31.8375 10.2318C32.1518 8.33127 32.0632 6.38591 31.5775 4.5218L27.9475 5.4643C28.3021 6.82227 28.3668 8.23967 28.1375 9.6243L31.8375 10.2318ZM16.49 49.9993C15.9175 49.9983 15.3662 49.7829 14.9446 49.3956C14.5231 49.0083 14.2619 48.4771 14.2125 47.9068L10.4775 48.2293C10.6076 49.7347 11.2972 51.1367 12.4103 52.1586C13.5233 53.1805 14.979 53.748 16.49 53.7493V49.9993ZM16.5675 19.3893C18.2675 17.9243 20.0975 16.1818 21.31 13.9143L18 12.1493C17.135 13.7718 15.7575 15.1393 14.1175 16.5493L16.5675 19.3893ZM49.285 27.6568C49.4355 26.7893 49.3945 25.8993 49.1649 25.0493C48.9353 24.1993 48.5227 23.4097 47.9558 22.7359C47.389 22.0622 46.6817 21.5205 45.8835 21.1488C45.0853 20.7771 44.2155 20.5845 43.335 20.5843V24.3343C44.7525 24.3343 45.835 25.6143 45.59 27.0168L49.285 27.6568ZM3.7175 49.9993C4.0825 49.9993 4.375 50.2943 4.375 50.6568H0.625C0.625 52.3618 2.0075 53.7493 3.7175 53.7493V49.9993ZM26.48 19.7368C26.3868 20.3033 26.418 20.8832 26.5713 21.4364C26.7246 21.9896 26.9965 22.5028 27.368 22.9405C27.7395 23.3781 28.2018 23.7297 28.7228 23.9708C29.2437 24.2119 29.8109 24.3343 30.385 24.3343V20.5843C30.3545 20.5844 30.3243 20.5803 30.2967 20.5675C30.269 20.5546 30.2445 20.5359 30.2249 20.5125C30.2054 20.4891 30.1912 20.4616 30.1834 20.4321C30.1757 20.4027 30.1745 20.3718 30.18 20.3418L26.48 19.7368ZM12.1825 24.4243C12.152 24.0623 12.2052 23.6982 12.3425 23.3619C12.4798 23.0255 12.6949 22.7265 12.97 22.4893L10.52 19.6468C9.79536 20.2721 9.22943 21.0605 8.86871 21.9471C8.50799 22.8337 8.36278 23.7932 8.445 24.7468L12.1825 24.4243Z"
    />
  </symbol>

  <symbol id="metro">
    <path
      d="M36.3525 29.625L30.15 13.975L24.92 23.125L19.69 13.975L13.4875 29.63H11.695V31.9825H21.035V29.63H19.6525L20.9975 25.7425L24.92 32.1675L28.8425 25.7425L30.1875 29.63H28.805V31.9825H38.1825V29.63L36.3525 29.625ZM49.69 24.845C49.6916 21.5818 49.0501 18.3504 47.8021 15.3353C46.5541 12.3202 44.7241 9.58067 42.4167 7.27327C40.1093 4.96587 37.3698 3.13587 34.3547 1.88787C31.3396 0.639874 28.1082 -0.00163985 24.845 3.14795e-06C11.135 3.14795e-06 0 11.1325 0 24.845C0 31.72 2.8025 37.92 7.285 42.4025C7.56569 42.6857 7.92426 42.879 8.31511 42.9578C8.70595 43.0366 9.11141 42.9974 9.47992 42.8452C9.84843 42.693 10.1633 42.4346 10.3846 42.1029C10.6059 41.7712 10.7235 41.3812 10.7225 40.9825C10.722 40.4379 10.5074 39.9153 10.125 39.5275C6.24126 35.6292 4.06503 30.3478 4.075 24.845C4.075 13.375 13.375 4.035 24.845 4.035C36.315 4.035 45.655 13.375 45.655 24.845C45.6596 27.5788 45.124 30.2866 44.0789 32.8127C43.0337 35.3388 41.4997 37.6336 39.565 39.565L22.005 57.1225L24.845 60L42.4425 42.4025C44.7472 40.0974 46.5739 37.3597 47.8176 34.3467C49.0613 31.3337 49.6977 28.1046 49.69 24.845Z"
    />
  </symbol>

<!-- Иконки на странице экскурсии -->
  <symbol id="location">
    <path
      d="M12 21c3.5-3.6 7-6.824 7-10.8C19 6.224 15.866 3 12 3s-7 3.224-7 7.2 3.5 7.2 7 10.8Z"
    />
    <path d="M12 12a2 2 0 1 0 0-4 2 2 0 0 0 0 4Z" />
  </symbol>

  <symbol id="pedestrian">
    <path
      d="M16.113 51.517c-.918 1.566-.868 3.498.705 4.66 1.346.992 3.742.863 4.662-.704 1.902-3.244 5.351-5.687 5.351-5.687s-1.27-2.798-1.871-8.041c-.001.001-6.683 6.079-8.847 9.772z"
    />
    <path
      d="M43.244 23.299c-3.903-3.474-8.09-6.591-12.672-9.098a5.679 5.679 0 0 0-1.652-.86 3.355 3.355 0 0 0-1.165-.25 4.95 4.95 0 0 0-1.836.115c-1.523.408-2.551 1.34-3.136 2.526-2.823 3.297-5.181 6.88-7.297 10.666-2.101 3.756 3.657 7.117 5.756 3.364a85.842 85.842 0 0 1 2.038-3.469l1.824 12.311c.123.832.519 1.548 1.072 2.13.884 5.842 2.507 11.605 5.066 16.907 1.867 3.87 7.614.487 5.756-3.365-1.912-3.961-3.19-8.346-3.977-12.769 1.73-1.205 2.357-3.375 2.033-5.569-.602-4.052-1.201-8.106-1.803-12.159a66.124 66.124 0 0 1 5.275 4.234c3.207 2.845 7.938-1.852 4.718-4.714z"
    />
    <circle cx="27.254" cy="5.808" r="5.808" />
  </symbol>



  <symbol id="wallet">
    <path
      stroke-linecap="round"
      stroke-linejoin="round"
      d="M18 8v-.8c0-1.12 0-1.68-.218-2.108a2 2 0 0 0-.874-.874C16.48 4 15.92 4 14.8 4H6.2c-1.12 0-1.68 0-2.108.218a2 2 0 0 0-.874.874C3 5.52 3 6.08 3 7.2V8m18 4h-2a2 2 0 1 0 0 4h2M3 8v8.8c0 1.12 0 1.68.218 2.108a2 2 0 0 0 .874.874C4.52 20 5.08 20 6.2 20h11.6c1.12 0 1.68 0 2.108-.218a2 2 0 0 0 .874-.874C21 18.48 21 17.92 21 16.8v-5.6c0-1.12 0-1.68-.218-2.108a2 2 0 0 0-.874-.874C19.48 8 18.92 8 17.8 8H3Z"
    />
  </symbol>


  <symbol id="hourglass">
    <g>
      <path
        d="M9.418 18.54C10.19 17.399 11.284 16 12 16c.716 0 1.809 1.398 2.582 2.54.43.637-.038 1.46-.806 1.46h-3.552c-.768 0-1.237-.823-.806-1.46ZM12 9c.351 0 .986-.766 1.527-1.523C13.98 6.844 13.51 6 12.731 6H11.27c-.778 0-1.249.844-.796 1.477C11.014 8.234 11.649 9 12 9Z"
      />
      <path
        fill-rule="evenodd"
        d="M4 2a1 1 0 0 1 1-1h14a1 1 0 1 1 0 2h-1.027c-.136 2.411-.763 4.239-1.683 5.74-.802 1.311-1.81 2.34-2.803 3.26.993.92 2.001 1.949 2.803 3.26.92 1.501 1.547 3.329 1.683 5.74H19a1 1 0 1 1 0 2H5a1 1 0 1 1 0-2h1.027c.136-2.411.763-4.239 1.683-5.74.802-1.311 1.81-2.34 2.803-3.26-.993-.92-2.001-1.949-2.803-3.26C6.79 7.24 6.163 5.412 6.027 3H5a1 1 0 0 1-1-1Zm11.97 19c-.132-2.049-.665-3.52-1.385-4.697-.698-1.139-1.59-2.039-2.585-2.953-.995.914-1.887 1.815-2.585 2.953-.72 1.177-1.253 2.648-1.384 4.697h7.938ZM8.03 3h7.94c-.132 2.049-.665 3.52-1.385 4.697-.698 1.138-1.59 2.039-2.585 2.953-.995-.914-1.887-1.815-2.585-2.953C8.695 6.52 8.162 5.049 8.031 3Z"
        clip-rule="evenodd"
      />
    </g>
  </symbol>

  <symbol id="calendar">
    <path
      stroke-linecap="round"
      stroke-linejoin="round"
      stroke-width="2"
      d="M3 9h18M9 15l2 2 4-4M7 3v2m10-2v2M6.2 21h11.6c1.12 0 1.68 0 2.108-.218a2 2 0 0 0 .874-.874C21 19.48 21 18.92 21 17.8V8.2c0-1.12 0-1.68-.218-2.108a2 2 0 0 0-.874-.874C19.48 5 18.92 5 17.8 5H6.2c-1.12 0-1.68 0-2.108.218a2 2 0 0 0-.874.874C3 6.52 3 7.08 3 8.2v9.6c0 1.12 0 1.68.218 2.108a2 2 0 0 0 .874.874C4.52 21 5.08 21 6.2 21Z"
    />
  </symbol>
</svg>