<svg xmlns="http://www.w3.org/2000/svg" >
  <symbol id="location">
    <path
      d="M12 21c3.5-3.6 7-6.824 7-10.8C19 6.224 15.866 3 12 3s-7 3.224-7 7.2 3.5 7.2 7 10.8Z"
    />
    <path d="M12 12a2 2 0 1 0 0-4 2 2 0 0 0 0 4Z" />
  </symbol>



  <symbol id="pedestrian">
    <path
      d="M16.113 51.517c-.918 1.566-.868 3.498.705 4.66 1.346.992 3.742.863 4.662-.704 1.902-3.244 5.351-5.687 5.351-5.687s-1.27-2.798-1.871-8.041c-.001.001-6.683 6.079-8.847 9.772z"
    />
    <path
      d="M43.244 23.299c-3.903-3.474-8.09-6.591-12.672-9.098a5.679 5.679 0 0 0-1.652-.86 3.355 3.355 0 0 0-1.165-.25 4.95 4.95 0 0 0-1.836.115c-1.523.408-2.551 1.34-3.136 2.526-2.823 3.297-5.181 6.88-7.297 10.666-2.101 3.756 3.657 7.117 5.756 3.364a85.842 85.842 0 0 1 2.038-3.469l1.824 12.311c.123.832.519 1.548 1.072 2.13.884 5.842 2.507 11.605 5.066 16.907 1.867 3.87 7.614.487 5.756-3.365-1.912-3.961-3.19-8.346-3.977-12.769 1.73-1.205 2.357-3.375 2.033-5.569-.602-4.052-1.201-8.106-1.803-12.159a66.124 66.124 0 0 1 5.275 4.234c3.207 2.845 7.938-1.852 4.718-4.714z"
    />
    <circle cx="27.254" cy="5.808" r="5.808" />
  </symbol>



  <symbol id="wallet">
    <path
      stroke-linecap="round"
      stroke-linejoin="round"
      d="M18 8v-.8c0-1.12 0-1.68-.218-2.108a2 2 0 0 0-.874-.874C16.48 4 15.92 4 14.8 4H6.2c-1.12 0-1.68 0-2.108.218a2 2 0 0 0-.874.874C3 5.52 3 6.08 3 7.2V8m18 4h-2a2 2 0 1 0 0 4h2M3 8v8.8c0 1.12 0 1.68.218 2.108a2 2 0 0 0 .874.874C4.52 20 5.08 20 6.2 20h11.6c1.12 0 1.68 0 2.108-.218a2 2 0 0 0 .874-.874C21 18.48 21 17.92 21 16.8v-5.6c0-1.12 0-1.68-.218-2.108a2 2 0 0 0-.874-.874C19.48 8 18.92 8 17.8 8H3Z"
    />
  </symbol>


  <symbol id="hourglass">
    <g>
      <path
        d="M9.418 18.54C10.19 17.399 11.284 16 12 16c.716 0 1.809 1.398 2.582 2.54.43.637-.038 1.46-.806 1.46h-3.552c-.768 0-1.237-.823-.806-1.46ZM12 9c.351 0 .986-.766 1.527-1.523C13.98 6.844 13.51 6 12.731 6H11.27c-.778 0-1.249.844-.796 1.477C11.014 8.234 11.649 9 12 9Z"
      />
      <path
        fill-rule="evenodd"
        d="M4 2a1 1 0 0 1 1-1h14a1 1 0 1 1 0 2h-1.027c-.136 2.411-.763 4.239-1.683 5.74-.802 1.311-1.81 2.34-2.803 3.26.993.92 2.001 1.949 2.803 3.26.92 1.501 1.547 3.329 1.683 5.74H19a1 1 0 1 1 0 2H5a1 1 0 1 1 0-2h1.027c.136-2.411.763-4.239 1.683-5.74.802-1.311 1.81-2.34 2.803-3.26-.993-.92-2.001-1.949-2.803-3.26C6.79 7.24 6.163 5.412 6.027 3H5a1 1 0 0 1-1-1Zm11.97 19c-.132-2.049-.665-3.52-1.385-4.697-.698-1.139-1.59-2.039-2.585-2.953-.995.914-1.887 1.815-2.585 2.953-.72 1.177-1.253 2.648-1.384 4.697h7.938ZM8.03 3h7.94c-.132 2.049-.665 3.52-1.385 4.697-.698 1.138-1.59 2.039-2.585 2.953-.995-.914-1.887-1.815-2.585-2.953C8.695 6.52 8.162 5.049 8.031 3Z"
        clip-rule="evenodd"
      />
    </g>
  </symbol>

  <symbol id="calendar">
    <path
      stroke-linecap="round"
      stroke-linejoin="round"
      stroke-width="2"
      d="M3 9h18M9 15l2 2 4-4M7 3v2m10-2v2M6.2 21h11.6c1.12 0 1.68 0 2.108-.218a2 2 0 0 0 .874-.874C21 19.48 21 18.92 21 17.8V8.2c0-1.12 0-1.68-.218-2.108a2 2 0 0 0-.874-.874C19.48 5 18.92 5 17.8 5H6.2c-1.12 0-1.68 0-2.108.218a2 2 0 0 0-.874.874C3 6.52 3 7.08 3 8.2v9.6c0 1.12 0 1.68.218 2.108a2 2 0 0 0 .874.874C4.52 21 5.08 21 6.2 21Z"
    />
  </symbol>
</svg>